<svg xmlns="http://www.w3.org/2000/svg" version="1.1" xmlns:xlink="http://www.w3.org/1999/xlink" xmlns:svgjs="http://svgjs.com/svgjs" width="400" height="400" preserveAspectRatio="none" viewBox="0 0 400 400"><g mask="url(&quot;#SvgjsMask1062&quot;)" fill="none"><g><path d="M210 410L190 390L190 370M210 430L210 410L210 390" stroke="url(#SvgjsLinearGradient1063)" stroke-width="3.33"></path><path d="M206.67 390 a3.33 3.33 0 1 0 6.66 0 a3.33 3.33 0 1 0 -6.66 0zM186.67 370 a3.33 3.33 0 1 0 6.66 0 a3.33 3.33 0 1 0 -6.66 0z" fill="url(#SvgjsLinearGradient1063)"></path><path d="M230 430L230 410L230 390" stroke="url(#SvgjsLinearGradient1063)" stroke-width="3.33"></path><path d="M226.67 390 a3.33 3.33 0 1 0 6.66 0 a3.33 3.33 0 1 0 -6.66 0z" fill="url(#SvgjsLinearGradient1063)"></path><path d="M150 350L130 330M150 330L170 310L190 290M150 390L170 370M170 430L170 410L150 390L150 370L150 350L150 330L150 310L150 290" stroke="url(#SvgjsLinearGradient1063)" stroke-width="3.33"></path><path d="M146.67 290 a3.33 3.33 0 1 0 6.66 0 a3.33 3.33 0 1 0 -6.66 0zM126.67 330 a3.33 3.33 0 1 0 6.66 0 a3.33 3.33 0 1 0 -6.66 0zM186.67 290 a3.33 3.33 0 1 0 6.66 0 a3.33 3.33 0 1 0 -6.66 0zM166.67 370 a3.33 3.33 0 1 0 6.66 0 a3.33 3.33 0 1 0 -6.66 0z" fill="url(#SvgjsLinearGradient1063)"></path><path d="M270 350L250 330L250 310L250 290L250 270M270 290L290 270L290 250M270 370L250 350L230 330M250 430L250 410L270 390L270 370L270 350L270 330L270 310L270 290L270 270L270 250" stroke="url(#SvgjsLinearGradient1063)" stroke-width="3.33"></path><path d="M266.67 250 a3.33 3.33 0 1 0 6.66 0 a3.33 3.33 0 1 0 -6.66 0zM246.67 270 a3.33 3.33 0 1 0 6.66 0 a3.33 3.33 0 1 0 -6.66 0zM286.67 250 a3.33 3.33 0 1 0 6.66 0 a3.33 3.33 0 1 0 -6.66 0zM226.67 330 a3.33 3.33 0 1 0 6.66 0 a3.33 3.33 0 1 0 -6.66 0z" fill="url(#SvgjsLinearGradient1063)"></path><path d="M110 370L130 350M130 390L130 370M150 430L150 410L130 390L110 370L110 350L110 330" stroke="url(#SvgjsLinearGradient1063)" stroke-width="3.33"></path><path d="M106.67 330 a3.33 3.33 0 1 0 6.66 0 a3.33 3.33 0 1 0 -6.66 0zM126.67 350 a3.33 3.33 0 1 0 6.66 0 a3.33 3.33 0 1 0 -6.66 0zM126.67 370 a3.33 3.33 0 1 0 6.66 0 a3.33 3.33 0 1 0 -6.66 0z" fill="url(#SvgjsLinearGradient1063)"></path><path d="M290 350L310 330M270 430L270 410L290 390L290 370L290 350L290 330" stroke="url(#SvgjsLinearGradient1063)" stroke-width="3.33"></path><path d="M286.67 330 a3.33 3.33 0 1 0 6.66 0 a3.33 3.33 0 1 0 -6.66 0zM306.67 330 a3.33 3.33 0 1 0 6.66 0 a3.33 3.33 0 1 0 -6.66 0z" fill="url(#SvgjsLinearGradient1063)"></path><path d="M130 430L130 410" stroke="url(#SvgjsLinearGradient1063)" stroke-width="3.33"></path><path d="M126.67 410 a3.33 3.33 0 1 0 6.66 0 a3.33 3.33 0 1 0 -6.66 0z" fill="url(#SvgjsLinearGradient1063)"></path><path d="M310 390L330 370L330 350M290 430L290 410L310 390L310 370" stroke="url(#SvgjsLinearGradient1063)" stroke-width="3.33"></path><path d="M306.67 370 a3.33 3.33 0 1 0 6.66 0 a3.33 3.33 0 1 0 -6.66 0zM326.67 350 a3.33 3.33 0 1 0 6.66 0 a3.33 3.33 0 1 0 -6.66 0z" fill="url(#SvgjsLinearGradient1063)"></path><path d="M110 410L90 390L70 370L70 350M110 430L110 410L110 390L90 370L90 350L90 330" stroke="url(#SvgjsLinearGradient1063)" stroke-width="3.33"></path><path d="M86.67 330 a3.33 3.33 0 1 0 6.66 0 a3.33 3.33 0 1 0 -6.66 0zM66.67 350 a3.33 3.33 0 1 0 6.66 0 a3.33 3.33 0 1 0 -6.66 0z" fill="url(#SvgjsLinearGradient1063)"></path></g></g><defs><mask id="SvgjsMask1062"><rect width="400" height="400" fill="#ffffff"></rect></mask><linearGradient x1="50" y1="150" x2="350" y2="450" gradientUnits="userSpaceOnUse" id="SvgjsLinearGradient1063"><stop stop-color="rgba(76, 8, 255, 0.29)" offset="0.92"></stop><stop stop-color="rgba(0, 2, 255, 0.62)" offset="0.96"></stop></linearGradient></defs></svg>