<svg xmlns="http://www.w3.org/2000/svg" version="1.1" xmlns:xlink="http://www.w3.org/1999/xlink" xmlns:svgjs="http://svgjs.com/svgjs" width="1000" height="500" preserveAspectRatio="none" viewBox="0 0 1000 500"><g mask="url(&quot;#SvgjsMask2249&quot;)" fill="none"><g mask="url(&quot;#SvgjsMask2251&quot;)"><path d="M997.5 262.5L962.5 297.5L927.5 297.5L892.5 297.5L857.5 332.5M892.5 262.5L857.5 227.5L822.5 227.5M927.5 262.5L892.5 227.5M1032.5 262.5L997.5 262.5L962.5 262.5L927.5 262.5L892.5 262.5L857.5 262.5L822.5 262.5L787.5 262.5" stroke="url(#SvgjsLinearGradient2250)" stroke-width="5.83"></path><path d="M778.75 262.5 a8.75 8.75 0 1 0 17.5 0 a8.75 8.75 0 1 0 -17.5 0zM848.75 332.5 a8.75 8.75 0 1 0 17.5 0 a8.75 8.75 0 1 0 -17.5 0zM813.75 227.5 a8.75 8.75 0 1 0 17.5 0 a8.75 8.75 0 1 0 -17.5 0zM883.75 227.5 a8.75 8.75 0 1 0 17.5 0 a8.75 8.75 0 1 0 -17.5 0z" fill="url(#SvgjsLinearGradient2250)"></path><path d="M682.5 192.5L647.5 227.5L612.5 227.5M752.5 192.5L717.5 227.5L682.5 227.5L647.5 262.5L612.5 262.5M997.5 192.5L962.5 227.5M1032.5 227.5L997.5 192.5L962.5 192.5L927.5 192.5L892.5 192.5L857.5 192.5L822.5 192.5L787.5 192.5L752.5 192.5L717.5 192.5L682.5 192.5L647.5 192.5L612.5 192.5L577.5 157.5" stroke="url(#SvgjsLinearGradient2250)" stroke-width="5.83"></path><path d="M568.75 157.5 a8.75 8.75 0 1 0 17.5 0 a8.75 8.75 0 1 0 -17.5 0zM603.75 227.5 a8.75 8.75 0 1 0 17.5 0 a8.75 8.75 0 1 0 -17.5 0zM603.75 262.5 a8.75 8.75 0 1 0 17.5 0 a8.75 8.75 0 1 0 -17.5 0zM953.75 227.5 a8.75 8.75 0 1 0 17.5 0 a8.75 8.75 0 1 0 -17.5 0z" fill="url(#SvgjsLinearGradient2250)"></path><path d="M997.5 332.5L962.5 367.5L927.5 402.5L892.5 402.5M1032.5 297.5L997.5 332.5L962.5 332.5" stroke="url(#SvgjsLinearGradient2250)" stroke-width="5.83"></path><path d="M953.75 332.5 a8.75 8.75 0 1 0 17.5 0 a8.75 8.75 0 1 0 -17.5 0zM883.75 402.5 a8.75 8.75 0 1 0 17.5 0 a8.75 8.75 0 1 0 -17.5 0z" fill="url(#SvgjsLinearGradient2250)"></path><path d="M1032.5 157.5L997.5 157.5" stroke="url(#SvgjsLinearGradient2250)" stroke-width="5.83"></path><path d="M988.75 157.5 a8.75 8.75 0 1 0 17.5 0 a8.75 8.75 0 1 0 -17.5 0z" fill="url(#SvgjsLinearGradient2250)"></path></g></g><defs><mask id="SvgjsMask2249"><rect width="1000" height="500" fill="#ffffff"></rect></mask><linearGradient x1="500" y1="0" x2="1000" y2="500" gradientUnits="userSpaceOnUse" id="SvgjsLinearGradient2250"><stop stop-color="rgba(76, 8, 255, 0.29)" offset="0.92"></stop><stop stop-color="rgba(0, 2, 255, 0.62)" offset="0.96"></stop></linearGradient><mask id="SvgjsMask2251"><rect width="1000" height="500" fill="white"></rect><path d="M783.12 262.5 a4.38 4.38 0 1 0 8.76 0 a4.38 4.38 0 1 0 -8.76 0zM853.12 332.5 a4.38 4.38 0 1 0 8.76 0 a4.38 4.38 0 1 0 -8.76 0zM818.12 227.5 a4.38 4.38 0 1 0 8.76 0 a4.38 4.38 0 1 0 -8.76 0zM888.12 227.5 a4.38 4.38 0 1 0 8.76 0 a4.38 4.38 0 1 0 -8.76 0z" fill="black"></path><path d="M573.12 157.5 a4.38 4.38 0 1 0 8.76 0 a4.38 4.38 0 1 0 -8.76 0zM608.12 227.5 a4.38 4.38 0 1 0 8.76 0 a4.38 4.38 0 1 0 -8.76 0zM608.12 262.5 a4.38 4.38 0 1 0 8.76 0 a4.38 4.38 0 1 0 -8.76 0zM958.12 227.5 a4.38 4.38 0 1 0 8.76 0 a4.38 4.38 0 1 0 -8.76 0z" fill="black"></path><path d="M958.12 332.5 a4.38 4.38 0 1 0 8.76 0 a4.38 4.38 0 1 0 -8.76 0zM888.12 402.5 a4.38 4.38 0 1 0 8.76 0 a4.38 4.38 0 1 0 -8.76 0z" fill="black"></path><path d="M993.12 157.5 a4.38 4.38 0 1 0 8.76 0 a4.38 4.38 0 1 0 -8.76 0z" fill="black"></path></mask></defs></svg>