<svg xmlns="http://www.w3.org/2000/svg" version="1.1" xmlns:xlink="http://www.w3.org/1999/xlink" xmlns:svgjs="http://svgjs.com/svgjs" width="400" height="400" preserveAspectRatio="none" viewBox="0 0 400 400"><g mask="url(&quot;#SvgjsMask1061&quot;)" fill="none"><g><path d="M210 390L190 370M210 430L210 410L210 390L210 370" stroke="url(#SvgjsLinearGradient1062)" stroke-width="3.33"></path><path d="M206.67 370 a3.33 3.33 0 1 0 6.66 0 a3.33 3.33 0 1 0 -6.66 0zM186.67 370 a3.33 3.33 0 1 0 6.66 0 a3.33 3.33 0 1 0 -6.66 0z" fill="url(#SvgjsLinearGradient1062)"></path><path d="M230 430L230 410L230 390" stroke="url(#SvgjsLinearGradient1062)" stroke-width="3.33"></path><path d="M226.67 390 a3.33 3.33 0 1 0 6.66 0 a3.33 3.33 0 1 0 -6.66 0z" fill="url(#SvgjsLinearGradient1062)"></path><path d="M170 410L190 390M170 370L150 350L150 330L150 310M170 430L170 410L170 390L170 370L170 350" stroke="url(#SvgjsLinearGradient1062)" stroke-width="3.33"></path><path d="M166.67 350 a3.33 3.33 0 1 0 6.66 0 a3.33 3.33 0 1 0 -6.66 0zM186.67 390 a3.33 3.33 0 1 0 6.66 0 a3.33 3.33 0 1 0 -6.66 0zM146.67 310 a3.33 3.33 0 1 0 6.66 0 a3.33 3.33 0 1 0 -6.66 0z" fill="url(#SvgjsLinearGradient1062)"></path><path d="M250 370L230 350M250 430L250 410L250 390L250 370L250 350L250 330" stroke="url(#SvgjsLinearGradient1062)" stroke-width="3.33"></path><path d="M246.67 330 a3.33 3.33 0 1 0 6.66 0 a3.33 3.33 0 1 0 -6.66 0zM226.67 350 a3.33 3.33 0 1 0 6.66 0 a3.33 3.33 0 1 0 -6.66 0z" fill="url(#SvgjsLinearGradient1062)"></path><path d="M150 430L150 410L150 390" stroke="url(#SvgjsLinearGradient1062)" stroke-width="3.33"></path><path d="M146.67 390 a3.33 3.33 0 1 0 6.66 0 a3.33 3.33 0 1 0 -6.66 0z" fill="url(#SvgjsLinearGradient1062)"></path><path d="M270 330L290 310L290 290L270 270M270 430L270 410L270 390L270 370L270 350L270 330L270 310" stroke="url(#SvgjsLinearGradient1062)" stroke-width="3.33"></path><path d="M266.67 310 a3.33 3.33 0 1 0 6.66 0 a3.33 3.33 0 1 0 -6.66 0zM266.67 270 a3.33 3.33 0 1 0 6.66 0 a3.33 3.33 0 1 0 -6.66 0z" fill="url(#SvgjsLinearGradient1062)"></path><path d="M130 430L130 410" stroke="url(#SvgjsLinearGradient1062)" stroke-width="3.33"></path><path d="M126.67 410 a3.33 3.33 0 1 0 6.66 0 a3.33 3.33 0 1 0 -6.66 0z" fill="url(#SvgjsLinearGradient1062)"></path><path d="M290 410L310 390L310 370L310 350L310 330M290 430L290 410L290 390L290 370L290 350" stroke="url(#SvgjsLinearGradient1062)" stroke-width="3.33"></path><path d="M286.67 350 a3.33 3.33 0 1 0 6.66 0 a3.33 3.33 0 1 0 -6.66 0zM306.67 330 a3.33 3.33 0 1 0 6.66 0 a3.33 3.33 0 1 0 -6.66 0z" fill="url(#SvgjsLinearGradient1062)"></path><path d="M110 410L90 390L70 370M110 390L110 370M110 430L110 410L110 390L90 370" stroke="url(#SvgjsLinearGradient1062)" stroke-width="3.33"></path><path d="M86.67 370 a3.33 3.33 0 1 0 6.66 0 a3.33 3.33 0 1 0 -6.66 0zM66.67 370 a3.33 3.33 0 1 0 6.66 0 a3.33 3.33 0 1 0 -6.66 0zM106.67 370 a3.33 3.33 0 1 0 6.66 0 a3.33 3.33 0 1 0 -6.66 0z" fill="url(#SvgjsLinearGradient1062)"></path></g></g><defs><mask id="SvgjsMask1061"><rect width="400" height="400" fill="#ffffff"></rect></mask><linearGradient x1="55.00000000000001" y1="164.99200000000002" x2="345" y2="455.00800000000004" gradientUnits="userSpaceOnUse" id="SvgjsLinearGradient1062"><stop stop-color="rgba(76, 8, 255, 0.29)" offset="0.92"></stop><stop stop-color="rgba(0, 2, 255, 0.62)" offset="0.96"></stop></linearGradient></defs></svg>