<svg xmlns="http://www.w3.org/2000/svg" version="1.1" xmlns:xlink="http://www.w3.org/1999/xlink" xmlns:svgjs="http://svgjs.com/svgjs" width="1440" height="560" preserveAspectRatio="none" viewBox="0 0 1440 560"><g mask="url(&quot;#SvgjsMask7381&quot;)" fill="none"><g mask="url(&quot;#SvgjsMask7383&quot;)"><path d="M1335 285L1305 255M1065 285L1035 315M1245 285L1215 255M1125 285L1095 255L1065 255L1035 255L1005 255L975 255M1485 285L1455 285L1425 285L1395 285L1365 285L1335 285L1305 285L1275 285L1245 285L1215 285L1185 285L1155 285L1125 285L1095 285L1065 285L1035 285L1005 285" stroke="url(#SvgjsLinearGradient7382)" stroke-width="5"></path><path d="M997.5 285 a7.5 7.5 0 1 0 15 0 a7.5 7.5 0 1 0 -15 0zM1297.5 255 a7.5 7.5 0 1 0 15 0 a7.5 7.5 0 1 0 -15 0zM1027.5 315 a7.5 7.5 0 1 0 15 0 a7.5 7.5 0 1 0 -15 0zM1207.5 255 a7.5 7.5 0 1 0 15 0 a7.5 7.5 0 1 0 -15 0zM967.5 255 a7.5 7.5 0 1 0 15 0 a7.5 7.5 0 1 0 -15 0z" fill="url(#SvgjsLinearGradient7382)"></path><path d="M1485 255L1455 255L1425 255" stroke="url(#SvgjsLinearGradient7382)" stroke-width="5"></path><path d="M1417.5 255 a7.5 7.5 0 1 0 15 0 a7.5 7.5 0 1 0 -15 0z" fill="url(#SvgjsLinearGradient7382)"></path><path d="M1305 315L1275 315L1245 315M1485 315L1455 315L1425 315L1395 315L1365 315L1335 315L1305 315L1275 345" stroke="url(#SvgjsLinearGradient7382)" stroke-width="5"></path><path d="M1267.5 345 a7.5 7.5 0 1 0 15 0 a7.5 7.5 0 1 0 -15 0zM1237.5 315 a7.5 7.5 0 1 0 15 0 a7.5 7.5 0 1 0 -15 0z" fill="url(#SvgjsLinearGradient7382)"></path><path d="M1275 375L1245 405L1215 405L1185 405M1215 375L1185 345L1155 345L1125 345M1035 405L1005 375M1005 405L975 435M945 405L915 435L885 435L855 465L825 465L795 465L765 465L735 465L705 465M1245 375L1215 345L1185 315L1155 315L1125 315L1095 315L1065 315L1035 345M765 405L735 375L705 375L675 345M1485 345L1455 345L1425 345L1395 345L1365 345L1335 345L1305 345L1275 375L1245 375L1215 375L1185 375L1155 375L1125 375L1095 405L1065 405L1035 405L1005 405L975 405L945 405L915 405L885 405L855 405L825 405L795 405L765 405L735 405L705 435L675 435" stroke="url(#SvgjsLinearGradient7382)" stroke-width="5"></path><path d="M667.5 435 a7.5 7.5 0 1 0 15 0 a7.5 7.5 0 1 0 -15 0zM1177.5 405 a7.5 7.5 0 1 0 15 0 a7.5 7.5 0 1 0 -15 0zM1117.5 345 a7.5 7.5 0 1 0 15 0 a7.5 7.5 0 1 0 -15 0zM997.5 375 a7.5 7.5 0 1 0 15 0 a7.5 7.5 0 1 0 -15 0zM967.5 435 a7.5 7.5 0 1 0 15 0 a7.5 7.5 0 1 0 -15 0zM697.5 465 a7.5 7.5 0 1 0 15 0 a7.5 7.5 0 1 0 -15 0zM1027.5 345 a7.5 7.5 0 1 0 15 0 a7.5 7.5 0 1 0 -15 0zM667.5 345 a7.5 7.5 0 1 0 15 0 a7.5 7.5 0 1 0 -15 0z" fill="url(#SvgjsLinearGradient7382)"></path><path d="M1305 165L1275 195L1245 195M1365 195L1335 195L1305 195M1395 195L1365 225M1485 195L1455 195L1425 195L1395 195L1365 195L1335 165L1305 165L1275 165L1245 165L1215 165L1185 165L1155 165" stroke="url(#SvgjsLinearGradient7382)" stroke-width="5"></path><path d="M1147.5 165 a7.5 7.5 0 1 0 15 0 a7.5 7.5 0 1 0 -15 0zM1237.5 195 a7.5 7.5 0 1 0 15 0 a7.5 7.5 0 1 0 -15 0zM1297.5 195 a7.5 7.5 0 1 0 15 0 a7.5 7.5 0 1 0 -15 0zM1357.5 225 a7.5 7.5 0 1 0 15 0 a7.5 7.5 0 1 0 -15 0z" fill="url(#SvgjsLinearGradient7382)"></path><path d="M1455 375L1425 405L1395 435L1365 435M1485 375L1455 375L1425 375L1395 375L1365 375" stroke="url(#SvgjsLinearGradient7382)" stroke-width="5"></path><path d="M1357.5 375 a7.5 7.5 0 1 0 15 0 a7.5 7.5 0 1 0 -15 0zM1357.5 435 a7.5 7.5 0 1 0 15 0 a7.5 7.5 0 1 0 -15 0z" fill="url(#SvgjsLinearGradient7382)"></path><path d="M1455 165L1425 135L1395 135L1365 105L1335 105M1245 135L1215 105L1185 105L1155 105L1125 105M1305 135L1275 105L1245 105L1215 75L1185 75M1485 165L1455 165L1425 165L1395 165L1365 165L1335 135L1305 135L1275 135L1245 135L1215 135" stroke="url(#SvgjsLinearGradient7382)" stroke-width="5"></path><path d="M1207.5 135 a7.5 7.5 0 1 0 15 0 a7.5 7.5 0 1 0 -15 0zM1327.5 105 a7.5 7.5 0 1 0 15 0 a7.5 7.5 0 1 0 -15 0zM1117.5 105 a7.5 7.5 0 1 0 15 0 a7.5 7.5 0 1 0 -15 0zM1177.5 75 a7.5 7.5 0 1 0 15 0 a7.5 7.5 0 1 0 -15 0z" fill="url(#SvgjsLinearGradient7382)"></path></g></g><defs><mask id="SvgjsMask7381"><rect width="1440" height="560" fill="#ffffff"></rect></mask><linearGradient x1="652.032" y1="-75.992" x2="1363.968" y2="635.992" gradientUnits="userSpaceOnUse" id="SvgjsLinearGradient7382"><stop stop-color="rgba(76, 8, 255, 0.29)" offset="0.92"></stop><stop stop-color="rgba(0, 2, 255, 0.62)" offset="0.96"></stop></linearGradient><mask id="SvgjsMask7383"><rect width="1440" height="560" fill="white"></rect><path d="M1001.25 285 a3.75 3.75 0 1 0 7.5 0 a3.75 3.75 0 1 0 -7.5 0zM1301.25 255 a3.75 3.75 0 1 0 7.5 0 a3.75 3.75 0 1 0 -7.5 0zM1031.25 315 a3.75 3.75 0 1 0 7.5 0 a3.75 3.75 0 1 0 -7.5 0zM1211.25 255 a3.75 3.75 0 1 0 7.5 0 a3.75 3.75 0 1 0 -7.5 0zM971.25 255 a3.75 3.75 0 1 0 7.5 0 a3.75 3.75 0 1 0 -7.5 0z" fill="black"></path><path d="M1421.25 255 a3.75 3.75 0 1 0 7.5 0 a3.75 3.75 0 1 0 -7.5 0z" fill="black"></path><path d="M1271.25 345 a3.75 3.75 0 1 0 7.5 0 a3.75 3.75 0 1 0 -7.5 0zM1241.25 315 a3.75 3.75 0 1 0 7.5 0 a3.75 3.75 0 1 0 -7.5 0z" fill="black"></path><path d="M671.25 435 a3.75 3.75 0 1 0 7.5 0 a3.75 3.75 0 1 0 -7.5 0zM1181.25 405 a3.75 3.75 0 1 0 7.5 0 a3.75 3.75 0 1 0 -7.5 0zM1121.25 345 a3.75 3.75 0 1 0 7.5 0 a3.75 3.75 0 1 0 -7.5 0zM1001.25 375 a3.75 3.75 0 1 0 7.5 0 a3.75 3.75 0 1 0 -7.5 0zM971.25 435 a3.75 3.75 0 1 0 7.5 0 a3.75 3.75 0 1 0 -7.5 0zM701.25 465 a3.75 3.75 0 1 0 7.5 0 a3.75 3.75 0 1 0 -7.5 0zM1031.25 345 a3.75 3.75 0 1 0 7.5 0 a3.75 3.75 0 1 0 -7.5 0zM671.25 345 a3.75 3.75 0 1 0 7.5 0 a3.75 3.75 0 1 0 -7.5 0z" fill="black"></path><path d="M1151.25 165 a3.75 3.75 0 1 0 7.5 0 a3.75 3.75 0 1 0 -7.5 0zM1241.25 195 a3.75 3.75 0 1 0 7.5 0 a3.75 3.75 0 1 0 -7.5 0zM1301.25 195 a3.75 3.75 0 1 0 7.5 0 a3.75 3.75 0 1 0 -7.5 0zM1361.25 225 a3.75 3.75 0 1 0 7.5 0 a3.75 3.75 0 1 0 -7.5 0z" fill="black"></path><path d="M1361.25 375 a3.75 3.75 0 1 0 7.5 0 a3.75 3.75 0 1 0 -7.5 0zM1361.25 435 a3.75 3.75 0 1 0 7.5 0 a3.75 3.75 0 1 0 -7.5 0z" fill="black"></path><path d="M1211.25 135 a3.75 3.75 0 1 0 7.5 0 a3.75 3.75 0 1 0 -7.5 0zM1331.25 105 a3.75 3.75 0 1 0 7.5 0 a3.75 3.75 0 1 0 -7.5 0zM1121.25 105 a3.75 3.75 0 1 0 7.5 0 a3.75 3.75 0 1 0 -7.5 0zM1181.25 75 a3.75 3.75 0 1 0 7.5 0 a3.75 3.75 0 1 0 -7.5 0z" fill="black"></path></mask></defs></svg>