<svg xmlns="http://www.w3.org/2000/svg" version="1.1" xmlns:xlink="http://www.w3.org/1999/xlink" xmlns:svgjs="http://svgjs.com/svgjs" width="400" height="400" preserveAspectRatio="none" viewBox="0 0 400 400"><g mask="url(&quot;#SvgjsMask1480&quot;)" fill="none"><g mask="url(&quot;#SvgjsMask1482&quot;)"><path d="M190 390L210 370L210 350L210 330L210 310M190 430L190 410L190 390L190 370" stroke="url(#SvgjsLinearGradient1481)" stroke-width="3.33"></path><path d="M185 370 a5 5 0 1 0 10 0 a5 5 0 1 0 -10 0zM205 310 a5 5 0 1 0 10 0 a5 5 0 1 0 -10 0z" fill="url(#SvgjsLinearGradient1481)"></path><path d="M230 370L250 350L250 330L250 310M230 410L210 390M230 430L230 410L230 390L230 370L230 350L230 330" stroke="url(#SvgjsLinearGradient1481)" stroke-width="3.33"></path><path d="M225 330 a5 5 0 1 0 10 0 a5 5 0 1 0 -10 0zM245 310 a5 5 0 1 0 10 0 a5 5 0 1 0 -10 0zM205 390 a5 5 0 1 0 10 0 a5 5 0 1 0 -10 0z" fill="url(#SvgjsLinearGradient1481)"></path><path d="M170 430L170 410L170 390L170 370L170 350L170 330" stroke="url(#SvgjsLinearGradient1481)" stroke-width="3.33"></path><path d="M165 330 a5 5 0 1 0 10 0 a5 5 0 1 0 -10 0z" fill="url(#SvgjsLinearGradient1481)"></path><path d="M250 430L250 410L250 390" stroke="url(#SvgjsLinearGradient1481)" stroke-width="3.33"></path><path d="M245 390 a5 5 0 1 0 10 0 a5 5 0 1 0 -10 0z" fill="url(#SvgjsLinearGradient1481)"></path><path d="M150 370L130 350L130 330L150 310L150 290M150 390L130 370L110 350M150 430L150 410L150 390L150 370L150 350L150 330" stroke="url(#SvgjsLinearGradient1481)" stroke-width="3.33"></path><path d="M145 330 a5 5 0 1 0 10 0 a5 5 0 1 0 -10 0zM145 290 a5 5 0 1 0 10 0 a5 5 0 1 0 -10 0zM105 350 a5 5 0 1 0 10 0 a5 5 0 1 0 -10 0z" fill="url(#SvgjsLinearGradient1481)"></path><path d="M270 430L270 410L270 390" stroke="url(#SvgjsLinearGradient1481)" stroke-width="3.33"></path><path d="M265 390 a5 5 0 1 0 10 0 a5 5 0 1 0 -10 0z" fill="url(#SvgjsLinearGradient1481)"></path><path d="M130 430L130 410" stroke="url(#SvgjsLinearGradient1481)" stroke-width="3.33"></path><path d="M125 410 a5 5 0 1 0 10 0 a5 5 0 1 0 -10 0z" fill="url(#SvgjsLinearGradient1481)"></path><path d="M290 390L310 370L310 350L310 330M290 410L310 390L330 370L330 350M290 430L290 410L290 390L290 370" stroke="url(#SvgjsLinearGradient1481)" stroke-width="3.33"></path><path d="M285 370 a5 5 0 1 0 10 0 a5 5 0 1 0 -10 0zM305 330 a5 5 0 1 0 10 0 a5 5 0 1 0 -10 0zM325 350 a5 5 0 1 0 10 0 a5 5 0 1 0 -10 0z" fill="url(#SvgjsLinearGradient1481)"></path><path d="M110 430L110 410L110 390" stroke="url(#SvgjsLinearGradient1481)" stroke-width="3.33"></path><path d="M105 390 a5 5 0 1 0 10 0 a5 5 0 1 0 -10 0z" fill="url(#SvgjsLinearGradient1481)"></path></g></g><defs><mask id="SvgjsMask1480"><rect width="400" height="400" fill="#ffffff"></rect></mask><linearGradient x1="56.00000000000001" y1="167.9968" x2="344" y2="456.0032" gradientUnits="userSpaceOnUse" id="SvgjsLinearGradient1481"><stop stop-color="rgba(76, 8, 255, 0.29)" offset="0.92"></stop><stop stop-color="rgba(0, 2, 255, 0.62)" offset="0.96"></stop></linearGradient><mask id="SvgjsMask1482"><rect width="400" height="400" fill="white"></rect><path d="M187.5 370 a2.5 2.5 0 1 0 5 0 a2.5 2.5 0 1 0 -5 0zM207.5 310 a2.5 2.5 0 1 0 5 0 a2.5 2.5 0 1 0 -5 0z" fill="black"></path><path d="M227.5 330 a2.5 2.5 0 1 0 5 0 a2.5 2.5 0 1 0 -5 0zM247.5 310 a2.5 2.5 0 1 0 5 0 a2.5 2.5 0 1 0 -5 0zM207.5 390 a2.5 2.5 0 1 0 5 0 a2.5 2.5 0 1 0 -5 0z" fill="black"></path><path d="M167.5 330 a2.5 2.5 0 1 0 5 0 a2.5 2.5 0 1 0 -5 0z" fill="black"></path><path d="M247.5 390 a2.5 2.5 0 1 0 5 0 a2.5 2.5 0 1 0 -5 0z" fill="black"></path><path d="M147.5 330 a2.5 2.5 0 1 0 5 0 a2.5 2.5 0 1 0 -5 0zM147.5 290 a2.5 2.5 0 1 0 5 0 a2.5 2.5 0 1 0 -5 0zM107.5 350 a2.5 2.5 0 1 0 5 0 a2.5 2.5 0 1 0 -5 0z" fill="black"></path><path d="M267.5 390 a2.5 2.5 0 1 0 5 0 a2.5 2.5 0 1 0 -5 0z" fill="black"></path><path d="M127.5 410 a2.5 2.5 0 1 0 5 0 a2.5 2.5 0 1 0 -5 0z" fill="black"></path><path d="M287.5 370 a2.5 2.5 0 1 0 5 0 a2.5 2.5 0 1 0 -5 0zM307.5 330 a2.5 2.5 0 1 0 5 0 a2.5 2.5 0 1 0 -5 0zM327.5 350 a2.5 2.5 0 1 0 5 0 a2.5 2.5 0 1 0 -5 0z" fill="black"></path><path d="M107.5 390 a2.5 2.5 0 1 0 5 0 a2.5 2.5 0 1 0 -5 0z" fill="black"></path></mask></defs></svg>