<svg xmlns="http://www.w3.org/2000/svg" version="1.1" xmlns:xlink="http://www.w3.org/1999/xlink" xmlns:svgjs="http://svgjs.com/svgjs" width="500" height="500" preserveAspectRatio="none" viewBox="0 0 500 500"><g mask="url(&quot;#SvgjsMask1957&quot;)" fill="none"><g mask="url(&quot;#SvgjsMask1959&quot;)"><path d="M262.5 542.5L262.5 507.5L262.5 472.5" stroke="url(#SvgjsLinearGradient1958)" stroke-width="5.83"></path><path d="M253.75 472.5 a8.75 8.75 0 1 0 17.5 0 a8.75 8.75 0 1 0 -17.5 0z" fill="url(#SvgjsLinearGradient1958)"></path><path d="M227.5 542.5L227.5 507.5" stroke="url(#SvgjsLinearGradient1958)" stroke-width="5.83"></path><path d="M218.75 507.5 a8.75 8.75 0 1 0 17.5 0 a8.75 8.75 0 1 0 -17.5 0z" fill="url(#SvgjsLinearGradient1958)"></path><path d="M297.5 402.5L262.5 367.5M297.5 437.5L262.5 402.5M297.5 542.5L297.5 507.5L297.5 472.5L297.5 437.5L297.5 402.5L297.5 367.5" stroke="url(#SvgjsLinearGradient1958)" stroke-width="5.83"></path><path d="M288.75 367.5 a8.75 8.75 0 1 0 17.5 0 a8.75 8.75 0 1 0 -17.5 0zM253.75 367.5 a8.75 8.75 0 1 0 17.5 0 a8.75 8.75 0 1 0 -17.5 0zM253.75 402.5 a8.75 8.75 0 1 0 17.5 0 a8.75 8.75 0 1 0 -17.5 0z" fill="url(#SvgjsLinearGradient1958)"></path><path d="M192.5 507.5L157.5 472.5M192.5 542.5L192.5 507.5L192.5 472.5" stroke="url(#SvgjsLinearGradient1958)" stroke-width="5.83"></path><path d="M183.75 472.5 a8.75 8.75 0 1 0 17.5 0 a8.75 8.75 0 1 0 -17.5 0zM148.75 472.5 a8.75 8.75 0 1 0 17.5 0 a8.75 8.75 0 1 0 -17.5 0z" fill="url(#SvgjsLinearGradient1958)"></path><path d="M332.5 472.5L367.5 437.5L367.5 402.5L367.5 367.5M332.5 507.5L367.5 472.5L402.5 437.5L402.5 402.5L402.5 367.5M332.5 542.5L332.5 507.5L332.5 472.5L332.5 437.5" stroke="url(#SvgjsLinearGradient1958)" stroke-width="5.83"></path><path d="M323.75 437.5 a8.75 8.75 0 1 0 17.5 0 a8.75 8.75 0 1 0 -17.5 0zM358.75 367.5 a8.75 8.75 0 1 0 17.5 0 a8.75 8.75 0 1 0 -17.5 0zM393.75 367.5 a8.75 8.75 0 1 0 17.5 0 a8.75 8.75 0 1 0 -17.5 0z" fill="url(#SvgjsLinearGradient1958)"></path></g></g><defs><mask id="SvgjsMask1957"><rect width="500" height="500" fill="#ffffff"></rect></mask><linearGradient x1="65" y1="195.008" x2="435" y2="564.992" gradientUnits="userSpaceOnUse" id="SvgjsLinearGradient1958"><stop stop-color="rgba(76, 8, 255, 0.29)" offset="0.92"></stop><stop stop-color="rgba(0, 2, 255, 0.62)" offset="0.96"></stop></linearGradient><mask id="SvgjsMask1959"><rect width="500" height="500" fill="white"></rect><path d="M258.12 472.5 a4.38 4.38 0 1 0 8.76 0 a4.38 4.38 0 1 0 -8.76 0z" fill="black"></path><path d="M223.12 507.5 a4.38 4.38 0 1 0 8.76 0 a4.38 4.38 0 1 0 -8.76 0z" fill="black"></path><path d="M293.12 367.5 a4.38 4.38 0 1 0 8.76 0 a4.38 4.38 0 1 0 -8.76 0zM258.12 367.5 a4.38 4.38 0 1 0 8.76 0 a4.38 4.38 0 1 0 -8.76 0zM258.12 402.5 a4.38 4.38 0 1 0 8.76 0 a4.38 4.38 0 1 0 -8.76 0z" fill="black"></path><path d="M188.12 472.5 a4.38 4.38 0 1 0 8.76 0 a4.38 4.38 0 1 0 -8.76 0zM153.12 472.5 a4.38 4.38 0 1 0 8.76 0 a4.38 4.38 0 1 0 -8.76 0z" fill="black"></path><path d="M328.12 437.5 a4.38 4.38 0 1 0 8.76 0 a4.38 4.38 0 1 0 -8.76 0zM363.12 367.5 a4.38 4.38 0 1 0 8.76 0 a4.38 4.38 0 1 0 -8.76 0zM398.12 367.5 a4.38 4.38 0 1 0 8.76 0 a4.38 4.38 0 1 0 -8.76 0z" fill="black"></path></mask></defs></svg>