<svg xmlns="http://www.w3.org/2000/svg" version="1.1" xmlns:xlink="http://www.w3.org/1999/xlink" xmlns:svgjs="http://svgjs.com/svgjs" width="900" height="500" preserveAspectRatio="none" viewBox="0 0 900 500"><g mask="url(&quot;#SvgjsMask1538&quot;)" fill="none"><g mask="url(&quot;#SvgjsMask1540&quot;)"><path d="M945 255L915 255" stroke="url(#SvgjsLinearGradient1539)" stroke-width="5"></path><path d="M907.5 255 a7.5 7.5 0 1 0 15 0 a7.5 7.5 0 1 0 -15 0z" fill="url(#SvgjsLinearGradient1539)"></path><path d="M915 225L885 195M855 225L825 195M885 225L855 255L825 255L795 255L765 225M945 225L915 225L885 225L855 225L825 225" stroke="url(#SvgjsLinearGradient1539)" stroke-width="5"></path><path d="M817.5 225 a7.5 7.5 0 1 0 15 0 a7.5 7.5 0 1 0 -15 0zM877.5 195 a7.5 7.5 0 1 0 15 0 a7.5 7.5 0 1 0 -15 0zM817.5 195 a7.5 7.5 0 1 0 15 0 a7.5 7.5 0 1 0 -15 0zM757.5 225 a7.5 7.5 0 1 0 15 0 a7.5 7.5 0 1 0 -15 0z" fill="url(#SvgjsLinearGradient1539)"></path><path d="M945 285L915 285L885 285" stroke="url(#SvgjsLinearGradient1539)" stroke-width="5"></path><path d="M877.5 285 a7.5 7.5 0 1 0 15 0 a7.5 7.5 0 1 0 -15 0z" fill="url(#SvgjsLinearGradient1539)"></path><path d="M765 345L735 345L705 345L675 345M735 375L705 405L675 435L645 435L615 435M795 345L765 315L735 315L705 315L675 315M945 315L915 315L885 315L855 315L825 315L795 345L765 345L735 375L705 375L675 375L645 375L615 375" stroke="url(#SvgjsLinearGradient1539)" stroke-width="5"></path><path d="M607.5 375 a7.5 7.5 0 1 0 15 0 a7.5 7.5 0 1 0 -15 0zM667.5 345 a7.5 7.5 0 1 0 15 0 a7.5 7.5 0 1 0 -15 0zM607.5 435 a7.5 7.5 0 1 0 15 0 a7.5 7.5 0 1 0 -15 0zM667.5 315 a7.5 7.5 0 1 0 15 0 a7.5 7.5 0 1 0 -15 0z" fill="url(#SvgjsLinearGradient1539)"></path><path d="M855 345L825 375L795 405M915 345L885 375M945 345L915 345L885 345L855 345L825 345L795 375L765 375" stroke="url(#SvgjsLinearGradient1539)" stroke-width="5"></path><path d="M757.5 375 a7.5 7.5 0 1 0 15 0 a7.5 7.5 0 1 0 -15 0zM787.5 405 a7.5 7.5 0 1 0 15 0 a7.5 7.5 0 1 0 -15 0zM877.5 375 a7.5 7.5 0 1 0 15 0 a7.5 7.5 0 1 0 -15 0z" fill="url(#SvgjsLinearGradient1539)"></path><path d="M945 135L915 135" stroke="url(#SvgjsLinearGradient1539)" stroke-width="5"></path><path d="M907.5 135 a7.5 7.5 0 1 0 15 0 a7.5 7.5 0 1 0 -15 0z" fill="url(#SvgjsLinearGradient1539)"></path></g></g><defs><mask id="SvgjsMask1538"><rect width="900" height="500" fill="#ffffff"></rect></mask><linearGradient x1="437.49" y1="12.5" x2="912.51" y2="487.5" gradientUnits="userSpaceOnUse" id="SvgjsLinearGradient1539"><stop stop-color="rgba(76, 8, 255, 0.29)" offset="0.92"></stop><stop stop-color="rgba(0, 2, 255, 0.62)" offset="0.96"></stop></linearGradient><mask id="SvgjsMask1540"><rect width="900" height="500" fill="white"></rect><path d="M911.25 255 a3.75 3.75 0 1 0 7.5 0 a3.75 3.75 0 1 0 -7.5 0z" fill="black"></path><path d="M821.25 225 a3.75 3.75 0 1 0 7.5 0 a3.75 3.75 0 1 0 -7.5 0zM881.25 195 a3.75 3.75 0 1 0 7.5 0 a3.75 3.75 0 1 0 -7.5 0zM821.25 195 a3.75 3.75 0 1 0 7.5 0 a3.75 3.75 0 1 0 -7.5 0zM761.25 225 a3.75 3.75 0 1 0 7.5 0 a3.75 3.75 0 1 0 -7.5 0z" fill="black"></path><path d="M881.25 285 a3.75 3.75 0 1 0 7.5 0 a3.75 3.75 0 1 0 -7.5 0z" fill="black"></path><path d="M611.25 375 a3.75 3.75 0 1 0 7.5 0 a3.75 3.75 0 1 0 -7.5 0zM671.25 345 a3.75 3.75 0 1 0 7.5 0 a3.75 3.75 0 1 0 -7.5 0zM611.25 435 a3.75 3.75 0 1 0 7.5 0 a3.75 3.75 0 1 0 -7.5 0zM671.25 315 a3.75 3.75 0 1 0 7.5 0 a3.75 3.75 0 1 0 -7.5 0z" fill="black"></path><path d="M761.25 375 a3.75 3.75 0 1 0 7.5 0 a3.75 3.75 0 1 0 -7.5 0zM791.25 405 a3.75 3.75 0 1 0 7.5 0 a3.75 3.75 0 1 0 -7.5 0zM881.25 375 a3.75 3.75 0 1 0 7.5 0 a3.75 3.75 0 1 0 -7.5 0z" fill="black"></path><path d="M911.25 135 a3.75 3.75 0 1 0 7.5 0 a3.75 3.75 0 1 0 -7.5 0z" fill="black"></path></mask></defs></svg>