<svg xmlns="http://www.w3.org/2000/svg" version="1.1" xmlns:xlink="http://www.w3.org/1999/xlink" xmlns:svgjs="http://svgjs.com/svgjs" width="900" height="500" preserveAspectRatio="none" viewBox="0 0 900 500"><g mask="url(&quot;#SvgjsMask1529&quot;)" fill="none"><g mask="url(&quot;#SvgjsMask1531&quot;)"><path d="M915 225L885 255L855 255M945 255L915 225L885 225L855 225" stroke="url(#SvgjsLinearGradient1530)" stroke-width="5"></path><path d="M847.5 225 a7.5 7.5 0 1 0 15 0 a7.5 7.5 0 1 0 -15 0zM847.5 255 a7.5 7.5 0 1 0 15 0 a7.5 7.5 0 1 0 -15 0z" fill="url(#SvgjsLinearGradient1530)"></path><path d="M735 285L705 315L675 315M675 285L645 255L615 255L585 255L555 255M765 285L735 315M945 285L915 285L885 285L855 285L825 285L795 285L765 285L735 285L705 285L675 285L645 285" stroke="url(#SvgjsLinearGradient1530)" stroke-width="5"></path><path d="M637.5 285 a7.5 7.5 0 1 0 15 0 a7.5 7.5 0 1 0 -15 0zM667.5 315 a7.5 7.5 0 1 0 15 0 a7.5 7.5 0 1 0 -15 0zM547.5 255 a7.5 7.5 0 1 0 15 0 a7.5 7.5 0 1 0 -15 0zM727.5 315 a7.5 7.5 0 1 0 15 0 a7.5 7.5 0 1 0 -15 0z" fill="url(#SvgjsLinearGradient1530)"></path><path d="M915 165L885 135L855 105M945 195L915 165L885 165L855 165L825 195" stroke="url(#SvgjsLinearGradient1530)" stroke-width="5"></path><path d="M817.5 195 a7.5 7.5 0 1 0 15 0 a7.5 7.5 0 1 0 -15 0zM847.5 105 a7.5 7.5 0 1 0 15 0 a7.5 7.5 0 1 0 -15 0z" fill="url(#SvgjsLinearGradient1530)"></path><path d="M945 315L915 315L885 315L855 315" stroke="url(#SvgjsLinearGradient1530)" stroke-width="5"></path><path d="M847.5 315 a7.5 7.5 0 1 0 15 0 a7.5 7.5 0 1 0 -15 0z" fill="url(#SvgjsLinearGradient1530)"></path><path d="M825 345L795 315L765 315M855 345L825 375M705 345L675 375L645 375L615 375L585 375M945 345L915 345L885 345L855 345L825 345L795 345L765 345L735 345L705 345L675 345L645 345" stroke="url(#SvgjsLinearGradient1530)" stroke-width="5"></path><path d="M637.5 345 a7.5 7.5 0 1 0 15 0 a7.5 7.5 0 1 0 -15 0zM757.5 315 a7.5 7.5 0 1 0 15 0 a7.5 7.5 0 1 0 -15 0zM817.5 375 a7.5 7.5 0 1 0 15 0 a7.5 7.5 0 1 0 -15 0zM577.5 375 a7.5 7.5 0 1 0 15 0 a7.5 7.5 0 1 0 -15 0z" fill="url(#SvgjsLinearGradient1530)"></path></g></g><defs><mask id="SvgjsMask1529"><rect width="900" height="500" fill="#ffffff"></rect></mask><linearGradient x1="437.49" y1="12.5" x2="912.51" y2="487.5" gradientUnits="userSpaceOnUse" id="SvgjsLinearGradient1530"><stop stop-color="rgba(76, 8, 255, 0.29)" offset="0.92"></stop><stop stop-color="rgba(0, 2, 255, 0.62)" offset="0.96"></stop></linearGradient><mask id="SvgjsMask1531"><rect width="900" height="500" fill="white"></rect><path d="M851.25 225 a3.75 3.75 0 1 0 7.5 0 a3.75 3.75 0 1 0 -7.5 0zM851.25 255 a3.75 3.75 0 1 0 7.5 0 a3.75 3.75 0 1 0 -7.5 0z" fill="black"></path><path d="M641.25 285 a3.75 3.75 0 1 0 7.5 0 a3.75 3.75 0 1 0 -7.5 0zM671.25 315 a3.75 3.75 0 1 0 7.5 0 a3.75 3.75 0 1 0 -7.5 0zM551.25 255 a3.75 3.75 0 1 0 7.5 0 a3.75 3.75 0 1 0 -7.5 0zM731.25 315 a3.75 3.75 0 1 0 7.5 0 a3.75 3.75 0 1 0 -7.5 0z" fill="black"></path><path d="M821.25 195 a3.75 3.75 0 1 0 7.5 0 a3.75 3.75 0 1 0 -7.5 0zM851.25 105 a3.75 3.75 0 1 0 7.5 0 a3.75 3.75 0 1 0 -7.5 0z" fill="black"></path><path d="M851.25 315 a3.75 3.75 0 1 0 7.5 0 a3.75 3.75 0 1 0 -7.5 0z" fill="black"></path><path d="M641.25 345 a3.75 3.75 0 1 0 7.5 0 a3.75 3.75 0 1 0 -7.5 0zM761.25 315 a3.75 3.75 0 1 0 7.5 0 a3.75 3.75 0 1 0 -7.5 0zM821.25 375 a3.75 3.75 0 1 0 7.5 0 a3.75 3.75 0 1 0 -7.5 0zM581.25 375 a3.75 3.75 0 1 0 7.5 0 a3.75 3.75 0 1 0 -7.5 0z" fill="black"></path></mask></defs></svg>