<svg xmlns="http://www.w3.org/2000/svg" version="1.1" xmlns:xlink="http://www.w3.org/1999/xlink" xmlns:svgjs="http://svgjs.com/svgjs" width="1440" height="560" preserveAspectRatio="none" viewBox="0 0 1440 560"><g mask="url(&quot;#SvgjsMask7321&quot;)" fill="none"><g mask="url(&quot;#SvgjsMask7323&quot;)"><path d="M1155 285L1125 255L1095 225M1185 285L1155 255L1125 225M1485 285L1455 285L1425 285L1395 285L1365 285L1335 285L1305 285L1275 285L1245 285L1215 285L1185 285L1155 285L1125 285L1095 285L1065 285" stroke="url(#SvgjsLinearGradient7322)" stroke-width="5"></path><path d="M1057.5 285 a7.5 7.5 0 1 0 15 0 a7.5 7.5 0 1 0 -15 0zM1087.5 225 a7.5 7.5 0 1 0 15 0 a7.5 7.5 0 1 0 -15 0zM1117.5 225 a7.5 7.5 0 1 0 15 0 a7.5 7.5 0 1 0 -15 0z" fill="url(#SvgjsLinearGradient7322)"></path><path d="M1485 255L1455 255L1425 255L1395 255L1365 255L1335 255L1305 255L1275 255L1245 255L1215 255" stroke="url(#SvgjsLinearGradient7322)" stroke-width="5"></path><path d="M1207.5 255 a7.5 7.5 0 1 0 15 0 a7.5 7.5 0 1 0 -15 0z" fill="url(#SvgjsLinearGradient7322)"></path><path d="M1485 315L1455 315L1425 315L1395 315L1365 315L1335 315L1305 315L1275 315L1245 315L1215 315L1185 315L1155 315L1125 315" stroke="url(#SvgjsLinearGradient7322)" stroke-width="5"></path><path d="M1117.5 315 a7.5 7.5 0 1 0 15 0 a7.5 7.5 0 1 0 -15 0z" fill="url(#SvgjsLinearGradient7322)"></path><path d="M1215 225L1185 195L1155 165M1305 225L1275 195M1245 225L1215 195L1185 165L1155 135L1125 135M1485 225L1455 225L1425 225L1395 225L1365 225L1335 225L1305 225L1275 225L1245 225L1215 225L1185 225L1155 195L1125 195" stroke="url(#SvgjsLinearGradient7322)" stroke-width="5"></path><path d="M1117.5 195 a7.5 7.5 0 1 0 15 0 a7.5 7.5 0 1 0 -15 0zM1147.5 165 a7.5 7.5 0 1 0 15 0 a7.5 7.5 0 1 0 -15 0zM1267.5 195 a7.5 7.5 0 1 0 15 0 a7.5 7.5 0 1 0 -15 0zM1117.5 135 a7.5 7.5 0 1 0 15 0 a7.5 7.5 0 1 0 -15 0z" fill="url(#SvgjsLinearGradient7322)"></path><path d="M1125 375L1095 405L1065 405M1335 345L1305 375L1275 375M1365 345L1335 375M1395 345L1365 375L1335 405L1305 435L1275 435M1485 345L1455 345L1425 345L1395 345L1365 345L1335 345L1305 345L1275 345L1245 345L1215 345L1185 345L1155 345L1125 375L1095 375L1065 375L1035 375" stroke="url(#SvgjsLinearGradient7322)" stroke-width="5"></path><path d="M1027.5 375 a7.5 7.5 0 1 0 15 0 a7.5 7.5 0 1 0 -15 0zM1057.5 405 a7.5 7.5 0 1 0 15 0 a7.5 7.5 0 1 0 -15 0zM1267.5 375 a7.5 7.5 0 1 0 15 0 a7.5 7.5 0 1 0 -15 0zM1327.5 375 a7.5 7.5 0 1 0 15 0 a7.5 7.5 0 1 0 -15 0zM1267.5 435 a7.5 7.5 0 1 0 15 0 a7.5 7.5 0 1 0 -15 0z" fill="url(#SvgjsLinearGradient7322)"></path><path d="M1485 195L1455 195L1425 195L1395 165" stroke="url(#SvgjsLinearGradient7322)" stroke-width="5"></path><path d="M1387.5 165 a7.5 7.5 0 1 0 15 0 a7.5 7.5 0 1 0 -15 0z" fill="url(#SvgjsLinearGradient7322)"></path><path d="M1425 135L1395 105M1455 165L1425 165M1485 165L1455 165L1425 135L1395 135L1365 135" stroke="url(#SvgjsLinearGradient7322)" stroke-width="5"></path><path d="M1357.5 135 a7.5 7.5 0 1 0 15 0 a7.5 7.5 0 1 0 -15 0zM1387.5 105 a7.5 7.5 0 1 0 15 0 a7.5 7.5 0 1 0 -15 0zM1417.5 165 a7.5 7.5 0 1 0 15 0 a7.5 7.5 0 1 0 -15 0z" fill="url(#SvgjsLinearGradient7322)"></path></g></g><defs><mask id="SvgjsMask7321"><rect width="1440" height="560" fill="#ffffff"></rect></mask><linearGradient x1="652.032" y1="-75.992" x2="1363.968" y2="635.992" gradientUnits="userSpaceOnUse" id="SvgjsLinearGradient7322"><stop stop-color="rgba(76, 8, 255, 0.29)" offset="0.92"></stop><stop stop-color="rgba(0, 2, 255, 0.62)" offset="0.96"></stop></linearGradient><mask id="SvgjsMask7323"><rect width="1440" height="560" fill="white"></rect><path d="M1061.25 285 a3.75 3.75 0 1 0 7.5 0 a3.75 3.75 0 1 0 -7.5 0zM1091.25 225 a3.75 3.75 0 1 0 7.5 0 a3.75 3.75 0 1 0 -7.5 0zM1121.25 225 a3.75 3.75 0 1 0 7.5 0 a3.75 3.75 0 1 0 -7.5 0z" fill="black"></path><path d="M1211.25 255 a3.75 3.75 0 1 0 7.5 0 a3.75 3.75 0 1 0 -7.5 0z" fill="black"></path><path d="M1121.25 315 a3.75 3.75 0 1 0 7.5 0 a3.75 3.75 0 1 0 -7.5 0z" fill="black"></path><path d="M1121.25 195 a3.75 3.75 0 1 0 7.5 0 a3.75 3.75 0 1 0 -7.5 0zM1151.25 165 a3.75 3.75 0 1 0 7.5 0 a3.75 3.75 0 1 0 -7.5 0zM1271.25 195 a3.75 3.75 0 1 0 7.5 0 a3.75 3.75 0 1 0 -7.5 0zM1121.25 135 a3.75 3.75 0 1 0 7.5 0 a3.75 3.75 0 1 0 -7.5 0z" fill="black"></path><path d="M1031.25 375 a3.75 3.75 0 1 0 7.5 0 a3.75 3.75 0 1 0 -7.5 0zM1061.25 405 a3.75 3.75 0 1 0 7.5 0 a3.75 3.75 0 1 0 -7.5 0zM1271.25 375 a3.75 3.75 0 1 0 7.5 0 a3.75 3.75 0 1 0 -7.5 0zM1331.25 375 a3.75 3.75 0 1 0 7.5 0 a3.75 3.75 0 1 0 -7.5 0zM1271.25 435 a3.75 3.75 0 1 0 7.5 0 a3.75 3.75 0 1 0 -7.5 0z" fill="black"></path><path d="M1391.25 165 a3.75 3.75 0 1 0 7.5 0 a3.75 3.75 0 1 0 -7.5 0z" fill="black"></path><path d="M1361.25 135 a3.75 3.75 0 1 0 7.5 0 a3.75 3.75 0 1 0 -7.5 0zM1391.25 105 a3.75 3.75 0 1 0 7.5 0 a3.75 3.75 0 1 0 -7.5 0zM1421.25 165 a3.75 3.75 0 1 0 7.5 0 a3.75 3.75 0 1 0 -7.5 0z" fill="black"></path></mask></defs></svg>