<svg xmlns="http://www.w3.org/2000/svg" version="1.1" xmlns:xlink="http://www.w3.org/1999/xlink" xmlns:svgjs="http://svgjs.com/svgjs" width="400" height="400" preserveAspectRatio="none" viewBox="0 0 400 400"><g mask="url(&quot;#SvgjsMask1030&quot;)" fill="none"><g mask="url(&quot;#SvgjsMask1032&quot;)"><path d="M435 195L405 195L375 195L345 195L315 195L285 195" stroke="url(#SvgjsLinearGradient1031)" stroke-width="5"></path><path d="M277.5 195 a7.5 7.5 0 1 0 15 0 a7.5 7.5 0 1 0 -15 0z" fill="url(#SvgjsLinearGradient1031)"></path><path d="M315 225L285 255L255 255M375 225L345 255L315 255M405 225L375 255L345 285L315 285M435 225L405 225L375 225L345 225L315 225L285 225L255 225" stroke="url(#SvgjsLinearGradient1031)" stroke-width="5"></path><path d="M247.5 225 a7.5 7.5 0 1 0 15 0 a7.5 7.5 0 1 0 -15 0zM247.5 255 a7.5 7.5 0 1 0 15 0 a7.5 7.5 0 1 0 -15 0zM307.5 255 a7.5 7.5 0 1 0 15 0 a7.5 7.5 0 1 0 -15 0zM307.5 285 a7.5 7.5 0 1 0 15 0 a7.5 7.5 0 1 0 -15 0z" fill="url(#SvgjsLinearGradient1031)"></path><path d="M255 165L225 195M435 165L405 165L375 165L345 165L315 165L285 165L255 165L225 165" stroke="url(#SvgjsLinearGradient1031)" stroke-width="5"></path><path d="M217.5 165 a7.5 7.5 0 1 0 15 0 a7.5 7.5 0 1 0 -15 0zM217.5 195 a7.5 7.5 0 1 0 15 0 a7.5 7.5 0 1 0 -15 0z" fill="url(#SvgjsLinearGradient1031)"></path><path d="M435 255L405 285" stroke="url(#SvgjsLinearGradient1031)" stroke-width="5"></path><path d="M397.5 285 a7.5 7.5 0 1 0 15 0 a7.5 7.5 0 1 0 -15 0z" fill="url(#SvgjsLinearGradient1031)"></path><path d="M435 135L405 135L375 135L345 135L315 135" stroke="url(#SvgjsLinearGradient1031)" stroke-width="5"></path><path d="M307.5 135 a7.5 7.5 0 1 0 15 0 a7.5 7.5 0 1 0 -15 0z" fill="url(#SvgjsLinearGradient1031)"></path><path d="M375 105L345 75M345 105L315 105L285 105M285 75L255 75L225 75M435 105L405 105L375 105L345 105L315 75L285 75L255 105" stroke="url(#SvgjsLinearGradient1031)" stroke-width="5"></path><path d="M247.5 105 a7.5 7.5 0 1 0 15 0 a7.5 7.5 0 1 0 -15 0zM337.5 75 a7.5 7.5 0 1 0 15 0 a7.5 7.5 0 1 0 -15 0zM277.5 105 a7.5 7.5 0 1 0 15 0 a7.5 7.5 0 1 0 -15 0zM217.5 75 a7.5 7.5 0 1 0 15 0 a7.5 7.5 0 1 0 -15 0z" fill="url(#SvgjsLinearGradient1031)"></path></g></g><defs><mask id="SvgjsMask1030"><rect width="400" height="400" fill="#ffffff"></rect></mask><linearGradient x1="119.99199999999999" y1="40" x2="440.00800000000004" y2="360" gradientUnits="userSpaceOnUse" id="SvgjsLinearGradient1031"><stop stop-color="rgba(76, 8, 255, 0.29)" offset="0.92"></stop><stop stop-color="rgba(0, 2, 255, 0.62)" offset="0.96"></stop></linearGradient><mask id="SvgjsMask1032"><rect width="400" height="400" fill="white"></rect><path d="M281.25 195 a3.75 3.75 0 1 0 7.5 0 a3.75 3.75 0 1 0 -7.5 0z" fill="black"></path><path d="M251.25 225 a3.75 3.75 0 1 0 7.5 0 a3.75 3.75 0 1 0 -7.5 0zM251.25 255 a3.75 3.75 0 1 0 7.5 0 a3.75 3.75 0 1 0 -7.5 0zM311.25 255 a3.75 3.75 0 1 0 7.5 0 a3.75 3.75 0 1 0 -7.5 0zM311.25 285 a3.75 3.75 0 1 0 7.5 0 a3.75 3.75 0 1 0 -7.5 0z" fill="black"></path><path d="M221.25 165 a3.75 3.75 0 1 0 7.5 0 a3.75 3.75 0 1 0 -7.5 0zM221.25 195 a3.75 3.75 0 1 0 7.5 0 a3.75 3.75 0 1 0 -7.5 0z" fill="black"></path><path d="M401.25 285 a3.75 3.75 0 1 0 7.5 0 a3.75 3.75 0 1 0 -7.5 0z" fill="black"></path><path d="M311.25 135 a3.75 3.75 0 1 0 7.5 0 a3.75 3.75 0 1 0 -7.5 0z" fill="black"></path><path d="M251.25 105 a3.75 3.75 0 1 0 7.5 0 a3.75 3.75 0 1 0 -7.5 0zM341.25 75 a3.75 3.75 0 1 0 7.5 0 a3.75 3.75 0 1 0 -7.5 0zM281.25 105 a3.75 3.75 0 1 0 7.5 0 a3.75 3.75 0 1 0 -7.5 0zM221.25 75 a3.75 3.75 0 1 0 7.5 0 a3.75 3.75 0 1 0 -7.5 0z" fill="black"></path></mask></defs></svg>