<svg xmlns="http://www.w3.org/2000/svg" version="1.1" xmlns:xlink="http://www.w3.org/1999/xlink" xmlns:svgjs="http://svgjs.com/svgjs" width="1440" height="560" preserveAspectRatio="none" viewBox="0 0 1440 560"><g mask="url(&quot;#SvgjsMask6959&quot;)" fill="none"><rect width="1440" height="560" x="0" y="0" fill="url(#SvgjsLinearGradient6960)"></rect><g mask="url(&quot;#SvgjsMask6962&quot;)"><path d="M1414.5 307.5L1373.5 266.5L1332.5 266.5L1291.5 266.5M1455.5 266.5L1414.5 266.5L1373.5 225.5L1332.5 225.5L1291.5 225.5M1496.5 266.5L1455.5 266.5L1414.5 307.5L1373.5 307.5L1332.5 307.5L1291.5 307.5L1250.5 307.5" stroke="url(#SvgjsLinearGradient6961)" stroke-width="6.83"></path><path d="M1240.25 307.5 a10.25 10.25 0 1 0 20.5 0 a10.25 10.25 0 1 0 -20.5 0zM1281.25 266.5 a10.25 10.25 0 1 0 20.5 0 a10.25 10.25 0 1 0 -20.5 0zM1281.25 225.5 a10.25 10.25 0 1 0 20.5 0 a10.25 10.25 0 1 0 -20.5 0z" fill="url(#SvgjsLinearGradient6961)"></path><path d="M1496.5 225.5L1455.5 225.5" stroke="url(#SvgjsLinearGradient6961)" stroke-width="6.83"></path><path d="M1445.25 225.5 a10.25 10.25 0 1 0 20.5 0 a10.25 10.25 0 1 0 -20.5 0z" fill="url(#SvgjsLinearGradient6961)"></path><path d="M1332.5 348.5L1291.5 389.5L1250.5 389.5L1209.5 389.5L1168.5 389.5M1496.5 348.5L1455.5 348.5L1414.5 348.5L1373.5 348.5L1332.5 348.5L1291.5 348.5L1250.5 348.5" stroke="url(#SvgjsLinearGradient6961)" stroke-width="6.83"></path><path d="M1240.25 348.5 a10.25 10.25 0 1 0 20.5 0 a10.25 10.25 0 1 0 -20.5 0zM1158.25 389.5 a10.25 10.25 0 1 0 20.5 0 a10.25 10.25 0 1 0 -20.5 0z" fill="url(#SvgjsLinearGradient6961)"></path><path d="M1332.5 143.5L1291.5 184.5L1250.5 184.5L1209.5 225.5M1373.5 143.5L1332.5 184.5M1250.5 143.5L1209.5 143.5L1168.5 143.5L1127.5 143.5M1496.5 184.5L1455.5 184.5L1414.5 184.5L1373.5 143.5L1332.5 143.5L1291.5 143.5L1250.5 143.5L1209.5 184.5" stroke="url(#SvgjsLinearGradient6961)" stroke-width="6.83"></path><path d="M1199.25 184.5 a10.25 10.25 0 1 0 20.5 0 a10.25 10.25 0 1 0 -20.5 0zM1199.25 225.5 a10.25 10.25 0 1 0 20.5 0 a10.25 10.25 0 1 0 -20.5 0zM1322.25 184.5 a10.25 10.25 0 1 0 20.5 0 a10.25 10.25 0 1 0 -20.5 0zM1117.25 143.5 a10.25 10.25 0 1 0 20.5 0 a10.25 10.25 0 1 0 -20.5 0z" fill="url(#SvgjsLinearGradient6961)"></path><path d="M1291.5 430.5L1250.5 430.5M1127.5 471.5L1086.5 430.5L1045.5 430.5M1373.5 389.5L1332.5 389.5M1496.5 389.5L1455.5 389.5L1414.5 389.5L1373.5 389.5L1332.5 430.5L1291.5 430.5L1250.5 471.5L1209.5 471.5L1168.5 471.5L1127.5 471.5L1086.5 471.5L1045.5 471.5L1004.5 471.5L963.5 471.5" stroke="url(#SvgjsLinearGradient6961)" stroke-width="6.83"></path><path d="M953.25 471.5 a10.25 10.25 0 1 0 20.5 0 a10.25 10.25 0 1 0 -20.5 0zM1240.25 430.5 a10.25 10.25 0 1 0 20.5 0 a10.25 10.25 0 1 0 -20.5 0zM1035.25 430.5 a10.25 10.25 0 1 0 20.5 0 a10.25 10.25 0 1 0 -20.5 0zM1322.25 389.5 a10.25 10.25 0 1 0 20.5 0 a10.25 10.25 0 1 0 -20.5 0z" fill="url(#SvgjsLinearGradient6961)"></path><path d="M1455.5 143.5L1414.5 102.5M1496.5 143.5L1455.5 143.5L1414.5 143.5L1373.5 102.5L1332.5 102.5L1291.5 102.5L1250.5 102.5L1209.5 102.5L1168.5 102.5L1127.5 102.5L1086.5 102.5" stroke="url(#SvgjsLinearGradient6961)" stroke-width="6.83"></path><path d="M1076.25 102.5 a10.25 10.25 0 1 0 20.5 0 a10.25 10.25 0 1 0 -20.5 0zM1404.25 102.5 a10.25 10.25 0 1 0 20.5 0 a10.25 10.25 0 1 0 -20.5 0z" fill="url(#SvgjsLinearGradient6961)"></path></g></g><defs><mask id="SvgjsMask6959"><rect width="1440" height="560" fill="#ffffff"></rect></mask><linearGradient x1="84.72%" y1="-39.29%" x2="15.28%" y2="139.29%" gradientUnits="userSpaceOnUse" id="SvgjsLinearGradient6960"><stop stop-color="rgba(255, 255, 251, 1)" offset="0.45"></stop><stop stop-color="rgba(255, 255, 251, 1)" offset="0.67"></stop><stop stop-color="rgba(255, 255, 251, 1)" offset="0.7"></stop><stop stop-color="rgba(255, 255, 251, 1)" offset="0.71"></stop><stop stop-color="rgba(255, 255, 251, 1)" offset="0.83"></stop><stop stop-color="rgba(255, 255, 251, 1)" offset="1"></stop></linearGradient><linearGradient x1="1108.8" y1="0" x2="1108.8" y2="560" gradientUnits="userSpaceOnUse" id="SvgjsLinearGradient6961"><stop stop-color="#3a7cc3" offset="0"></stop><stop stop-color="rgba(106, 30, 251, 0.54)" offset="0.18"></stop><stop stop-color="rgba(106, 30, 251, 0.54)" offset="0.54"></stop><stop stop-color="rgba(106, 30, 251, 0.54)" offset="0.88"></stop><stop stop-color="rgba(106, 30, 251, 0.54)" offset="0.96"></stop></linearGradient><mask id="SvgjsMask6962"><rect width="1440" height="560" fill="white"></rect><path d="M1245.37 307.5 a5.13 5.13 0 1 0 10.26 0 a5.13 5.13 0 1 0 -10.26 0zM1286.37 266.5 a5.13 5.13 0 1 0 10.26 0 a5.13 5.13 0 1 0 -10.26 0zM1286.37 225.5 a5.13 5.13 0 1 0 10.26 0 a5.13 5.13 0 1 0 -10.26 0z" fill="black"></path><path d="M1450.37 225.5 a5.13 5.13 0 1 0 10.26 0 a5.13 5.13 0 1 0 -10.26 0z" fill="black"></path><path d="M1245.37 348.5 a5.13 5.13 0 1 0 10.26 0 a5.13 5.13 0 1 0 -10.26 0zM1163.37 389.5 a5.13 5.13 0 1 0 10.26 0 a5.13 5.13 0 1 0 -10.26 0z" fill="black"></path><path d="M1204.37 184.5 a5.13 5.13 0 1 0 10.26 0 a5.13 5.13 0 1 0 -10.26 0zM1204.37 225.5 a5.13 5.13 0 1 0 10.26 0 a5.13 5.13 0 1 0 -10.26 0zM1327.37 184.5 a5.13 5.13 0 1 0 10.26 0 a5.13 5.13 0 1 0 -10.26 0zM1122.37 143.5 a5.13 5.13 0 1 0 10.26 0 a5.13 5.13 0 1 0 -10.26 0z" fill="black"></path><path d="M958.37 471.5 a5.13 5.13 0 1 0 10.26 0 a5.13 5.13 0 1 0 -10.26 0zM1245.37 430.5 a5.13 5.13 0 1 0 10.26 0 a5.13 5.13 0 1 0 -10.26 0zM1040.37 430.5 a5.13 5.13 0 1 0 10.26 0 a5.13 5.13 0 1 0 -10.26 0zM1327.37 389.5 a5.13 5.13 0 1 0 10.26 0 a5.13 5.13 0 1 0 -10.26 0z" fill="black"></path><path d="M1081.37 102.5 a5.13 5.13 0 1 0 10.26 0 a5.13 5.13 0 1 0 -10.26 0zM1409.37 102.5 a5.13 5.13 0 1 0 10.26 0 a5.13 5.13 0 1 0 -10.26 0z" fill="black"></path></mask></defs></svg>